<?xml version="1.0" encoding="UTF-8"?>
<!DOCTYPE svg PUBLIC "-//W3C//DTD SVG 1.1//EN" "http://www.w3.org/Graphics/SVG/1.1/DTD/svg11.dtd">
<!-- Creator: CorelDRAW 2020 (64-Bit) -->
<svg xmlns="http://www.w3.org/2000/svg" xml:space="preserve" width="60.279mm" height="26.056mm" version="1.1" style="shape-rendering:geometricPrecision; text-rendering:geometricPrecision; image-rendering:optimizeQuality; fill-rule:evenodd; clip-rule:evenodd"
viewBox="0 0 6027.9 2605.6"
 xmlns:xlink="http://www.w3.org/1999/xlink"
 xmlns:xodm="http://www.corel.com/coreldraw/odm/2003">
 <defs>
  <style type="text/css">
   <![CDATA[
    .fil0 {fill:#20263C;fill-rule:nonzero}
   ]]>
  </style>
 </defs>
 <g id="Слой_x0020_1">
  <metadata id="CorelCorpID_0Corel-Layer"/>
  <g id="_2948003176560">
   <path class="fil0" d="M2565.91 1302.78c0,190.39 -82.97,371.36 -232.09,534.24 -108.58,-117.26 -251.46,-225 -422.27,-320.25 -470.01,-262.04 -1151.25,-429.26 -1911.55,-436.03l0 -1074.1c1196.01,11.75 2195.28,420.48 2482.72,970.81 54.3,103.93 83.19,212.93 83.19,325.33z"/>
   <path class="fil0" d="M2223.96 1943.7c-442.48,384.38 -1270.73,645.79 -2223.96,655.21l0 -640.29c684.21,-7.41 1303.85,-144.78 1762.11,-364.28 174.52,101.71 329.88,219.18 461.85,349.36z"/>
   <g>
    <path class="fil0" d="M3748.37 1014.4c0,45.94 -23.7,68.8 -70.9,68.8l-44.66 0 0 -834.6 28.57 0c35.03,0 58.32,6.24 69.75,18.73 11.53,12.38 17.24,40.11 17.24,82.97l0 664.1zm188.71 -913.86c-46.78,-51.44 -116.53,-77.15 -209.24,-77.15l-354.01 0 0 1287.24 345.34 0c106.78,0 181.39,-33.13 224.15,-99.48 42.65,-66.25 64.03,-160.34 64.03,-282.26l0 -602.72c0,-98.95 -23.5,-174.2 -70.27,-225.63z"/>
    <polygon class="fil0" points="4100.91,1310.63 4349.61,1310.63 4349.61,23.39 4100.91,23.39 "/>
    <polygon class="fil0" points="5156.05,1310.63 5404.76,1310.63 5404.76,23.39 5156.05,23.39 "/>
    <polygon class="fil0" points="5464.66,23.39 5464.66,270.61 5617.59,270.61 5617.59,1310.63 5874.98,1310.63 5874.98,270.61 6027.9,270.61 6027.9,23.39 "/>
    <path class="fil0" d="M3621.16 2249.36l42.23 -564.4 10.06 0 48.57 564.4 -100.86 0zm238.34 -753.63l-376.45 0 -107.2 1109.87 215.68 0 13.87 -179.07 133.66 0 15.77 179.07 209.97 0 -105.3 -1109.87z"/>
    <polygon class="fil0" points="4254.89,2416.47 4254.89,1495.73 4032.96,1495.73 4032.96,2605.6 4483.17,2605.6 4483.17,2416.47 "/>
    <polygon class="fil0" points="4771.99,2389.38 4771.99,2135.17 4981.32,2135.17 4981.32,1926.47 4771.99,1926.47 4771.99,1710.15 4990.22,1710.15 4990.22,1495.73 4546.25,1495.73 4546.25,2605.6 5004.71,2605.6 5004.71,2389.38 "/>
    <polygon class="fil0" points="5601.82,1495.73 5509.11,2172.42 5415.87,1495.73 5077.85,1495.73 5077.85,2605.6 5278.4,2605.6 5278.4,1806.03 5413.33,2605.6 5612.62,2605.6 5739.93,1806.03 5739.93,2605.6 5943.03,2605.6 5943.03,1495.73 "/>
    <path class="fil0" d="M4815.38 448.98l0 -114.08c0,-27.73 -3.81,-51.01 -11.32,-69.86 -7.52,-18.73 -23.29,-28.15 -47.21,-28.15 -1.37,0 -2.64,0 -3.91,0.12 -0.32,-0.12 -0.74,-0.12 -1.17,-0.12 -8.57,0 -16.29,1.27 -23.17,3.92 -14.29,4.66 -24.45,13.34 -30.59,26.03 -9.52,20.01 -14.29,42.02 -14.29,65.83l0 624c0,34.6 4.55,62.76 13.55,84.45 8.04,19.36 22.97,30.05 44.87,32.06 2.65,0.32 5.3,0.43 8.15,0.43 1.27,0 2.44,0 3.6,-0.11 36.62,-2.33 54.93,-39.9 54.93,-113.24l0 -188.7 -59.27 0 0 -222.34 314.54 0 0 444.17c-6.25,95.46 -33.02,170.07 -80.12,224.06 -12.38,14.16 -25.93,26.66 -40.85,37.46 -50.48,37.14 -115.46,55.77 -195.05,55.77 -7.83,0 -15.56,-0.21 -23.18,-0.54 -91.54,-4.44 -162.45,-35.34 -212.62,-92.69 -33.44,-38.33 -56.61,-87.01 -69.53,-146.28 -0.1,-0.53 -0.21,-1.06 -0.31,-1.58 -4.87,-24.87 -8.36,-51.65 -10.59,-80.32 -0.74,-13.35 -1.16,-27.21 -1.16,-41.39l0 -611.51c0,-13.75 0.42,-27.19 1.27,-40.09 0,-0.22 0,-0.54 0.11,-0.86 9.84,-107.53 45.4,-185.74 106.78,-234.62 53.92,-42.78 126.47,-59.53 198.73,-60.8l17.98 0c17.17,0.29 34.24,1.42 50.94,3.23 50.38,6.02 93.56,20.2 129.54,42.64 0.11,0 0.21,0.11 0.32,0.21 2.96,2.01 5.82,4.02 8.57,6.14 46.25,34.92 78.21,85.72 95.78,152.51 13.44,51.21 21.8,111.22 24.87,179.8l0 64.45 -250.19 0z"/>
   </g>
  </g>
 </g>
</svg>
